M48
; DRILL file KiCad 10.0.6 date 2026-10-05T13:31:19
; FORMAT={-:-/ absolute / metric / decimal}
; #@! TF.CreationDate,2026-10-05T13:31:19-04:00
; #@! TF.GenerationSoftware,Kicad,Pcbnew,10.0.6
; #@! TF.FileFunction,Plated,1,4,PTH
FMAT,2
METRIC
; #@! TA.AperFunction,Plated,PTH,ViaDrill
T1C0.300
; #@! TA.AperFunction,Plated,PTH,ComponentDrill
T2C0.300
; #@! TA.AperFunction,Plated,PTH,ViaDrill
T3C0.600
; #@! TA.AperFunction,Plated,PTH,ViaDrill
T4C0.800
; #@! TA.AperFunction,Plated,PTH,ComponentDrill
T5C1.200
; #@! TA.AperFunction,Plated,PTH,ComponentDrill
T6C1.400
; #@! TA.AperFunction,Plated,PTH,ComponentDrill
T7C1.780
; #@! TA.AperFunction,Plated,PTH,ComponentDrill
T8C3.200
%
G90
G05
T1
X46.375Y-80.125
X50.65Y-45.3
X51.75Y-77.287
X51.775Y-79.875
X52.712Y-79.087
X53.787Y-82.3
X54.15Y-45.075
X56.237Y-87.9
X56.275Y-74.05
X57.75Y-101.4
X57.75Y-105.6
X59.837Y-83.4
X61.25Y-119.3
X61.3Y-111.5
X61.875Y-78.05
X62.425Y-79.825
X63.1Y-111.45
X63.15Y-119.25
X64.95Y-119.2
X65.0Y-111.6
X66.8Y-119.15
X66.85Y-111.6
X67.675Y-72.55
X68.125Y-45.45
X68.7Y-111.6
X68.7Y-119.1
X68.75Y-101.4
X68.75Y-105.6
X69.575Y-72.425
X70.6Y-111.55
X70.65Y-119.0
X71.4Y-81.7
X71.75Y-45.275
X72.4Y-111.45
X72.45Y-119.1
X74.4Y-119.05
X74.45Y-111.5
X75.3Y-45.5
X77.0Y-68.725
X78.625Y-45.55
X78.843Y-81.987
X79.19Y-70.442
X79.53Y-103.495
X80.52Y-95.385
X81.4Y-99.395
X81.4Y-100.345
X81.4Y-101.295
X81.4Y-105.004
X82.15Y-89.55
X82.2Y-95.375
X82.2Y-105.025
X82.87Y-105.855
X82.9Y-99.395
X82.9Y-100.345
X82.9Y-101.295
X82.942Y-75.487
X83.5Y-105.015
X83.64Y-63.642
X83.8Y-90.75
X83.847Y-95.443
X83.95Y-116.35
X84.294Y-105.117
X85.252Y-80.99
X85.55Y-69.295
X85.65Y-95.265
X86.55Y-76.07
X86.6Y-77.725
X88.992Y-82.438
X89.29Y-70.642
X90.61Y-117.77
X92.675Y-45.25
X93.25Y-115.5
X94.5Y-64.6
X95.15Y-70.1
X96.2Y-45.25
X98.3Y-104.185
X98.6Y-118.1
X98.745Y-95.15
X98.924Y-73.978
X98.975Y-75.756
X98.975Y-77.382
X99.605Y-104.69
X99.675Y-45.35
X99.768Y-99.11
X99.768Y-100.06
X99.768Y-101.01
X100.144Y-84.037
X100.395Y-95.06
X100.4Y-89.5
X100.412Y-104.717
X101.0Y-56.03
X101.0Y-62.68
X101.175Y-105.85
X101.218Y-99.11
X101.218Y-100.06
X101.218Y-101.01
X101.625Y-83.35
X101.7Y-114.8
X101.868Y-104.68
X101.92Y-65.3
X101.92Y-67.4
X102.005Y-95.25
X102.1Y-90.6
X102.45Y-56.73
X102.568Y-99.11
X102.568Y-100.06
X102.568Y-101.01
X102.75Y-73.725
X102.75Y-74.628
X102.9Y-71.725
X103.045Y-104.68
X103.175Y-45.275
X103.5Y-52.07
X103.785Y-95.3
X104.3Y-71.8
X105.15Y-119.21
X105.45Y-69.98
X105.87Y-77.68
X106.0Y-67.38
X106.45Y-81.85
X106.52Y-74.43
X106.65Y-84.425
X106.675Y-86.125
X106.7Y-69.95
X107.0Y-62.725
X107.0Y-64.025
X107.45Y-84.425
X107.9Y-77.25
X107.95Y-64.675
X108.1Y-67.38
X108.15Y-55.28
X108.2Y-73.63
X108.25Y-84.425
X108.95Y-75.2
X109.0Y-80.83
X109.025Y-69.15
X109.05Y-67.13
X109.05Y-84.425
X109.1Y-58.6
X109.1Y-61.0
X109.15Y-70.3
X109.4Y-62.725
X109.711Y-68.139
X109.79Y-69.383
X109.943Y-114.53
X110.0Y-73.35
X110.05Y-56.03
X110.2Y-74.7
X110.65Y-67.13
X110.84Y-81.88
X111.25Y-64.025
X111.45Y-55.48
X111.5Y-58.6
X111.5Y-61.0
X112.1Y-63.375
X112.3Y-67.75
X112.325Y-89.525
X112.5Y-91.875
X112.55Y-70.65
X112.9Y-64.725
X112.95Y-56.13
X113.075Y-77.625
X113.75Y-64.675
X113.85Y-56.78
X113.89Y-119.44
X114.038Y-78.469
X114.17Y-77.68
X114.599Y-69.449
X114.85Y-103.55
X114.95Y-67.25
X114.993Y-95.25
X115.79Y-113.45
X115.875Y-84.675
X116.283Y-104.83
X116.7Y-69.25
X116.75Y-85.65
X116.813Y-95.17
X116.938Y-77.88
X116.95Y-45.25
X117.1Y-73.7
X117.118Y-104.843
X117.2Y-75.83
X117.35Y-67.58
X117.4Y-81.55
X117.45Y-72.45
X117.5Y-62.63
X117.7Y-99.45
X117.7Y-100.45
X117.7Y-101.45
X118.0Y-70.34
X118.045Y-69.5
X118.1Y-105.853
X118.3Y-64.05
X118.6Y-90.6
X118.623Y-95.11
X118.75Y-77.325
X118.75Y-104.87
X119.4Y-99.45
X119.4Y-100.45
X119.4Y-101.45
X119.549Y-104.833
X120.3Y-77.35
X120.4Y-45.4
X120.903Y-95.06
X121.325Y-76.55
X121.8Y-89.2
X121.8Y-91.225
X122.525Y-72.775
X122.75Y-63.9
X122.825Y-61.7
X122.9Y-88.525
X122.9Y-90.625
X122.975Y-73.83
X123.6Y-89.95
X123.649Y-87.751
X123.95Y-45.4
X124.05Y-112.95
X124.15Y-64.2
X124.525Y-87.15
X124.55Y-89.375
X124.9Y-61.3
X125.62Y-118.41
X126.0Y-97.2
X126.5Y-68.775
X127.025Y-78.6
X127.2Y-76.825
X127.425Y-45.375
X127.5Y-105.8
X128.125Y-62.825
X128.2Y-82.6
X128.9Y-74.5
X129.4Y-61.925
X129.55Y-75.25
X131.94Y-112.91
X132.04Y-119.23
X132.22Y-103.54
X132.94Y-95.28
X134.05Y-61.2
X134.09Y-104.87
X134.33Y-94.94
X134.92Y-104.91
X135.2Y-86.125
X135.36Y-99.42
X135.36Y-100.42
X135.36Y-101.42
X135.875Y-64.25
X135.89Y-105.44
X136.87Y-104.88
X136.95Y-94.99
X137.0Y-87.925
X137.31Y-99.42
X137.31Y-100.42
X137.31Y-101.42
X137.72Y-104.84
X138.96Y-95.08
X140.1Y-88.8
X140.37Y-119.38
X141.175Y-45.075
X141.98Y-112.5
X144.325Y-93.9
X144.424Y-80.5
X144.75Y-45.2
X144.938Y-76.257
X147.088Y-86.557
X148.2Y-45.2
X148.362Y-97.088
X150.725Y-114.175
X151.575Y-45.15
X153.2Y-111.65
X154.024Y-116.265
X154.025Y-114.965
X154.05Y-111.0
X156.6Y-81.66
X160.775Y-111.75
X164.6Y-80.39
X166.05Y-44.975
X166.723Y-109.323
X169.225Y-44.95
X169.475Y-117.25
X170.675Y-109.375
X171.125Y-115.325
X171.55Y-114.125
X171.8Y-71.5
X172.217Y-114.824
X172.4Y-113.525
X172.425Y-44.95
X172.7Y-116.776
X172.894Y-115.484
X175.625Y-45.0
X181.0Y-110.6
X184.125Y-120.375
T2
X157.647Y-114.09
X157.647Y-115.29
X157.647Y-116.49
X157.647Y-117.69
X158.647Y-114.09
X158.647Y-115.29
X158.647Y-116.49
X158.647Y-117.69
X159.647Y-114.09
X159.647Y-115.29
X159.647Y-116.49
X159.647Y-117.69
X176.251Y-114.003
X176.251Y-115.203
X176.251Y-116.403
X176.251Y-117.603
X177.251Y-114.003
X177.251Y-115.203
X177.251Y-116.403
X177.251Y-117.603
X178.251Y-114.003
X178.251Y-115.203
X178.251Y-116.403
X178.251Y-117.603
T3
X47.47Y-44.29
X51.09Y-56.17
X51.25Y-101.2
X51.25Y-105.8
X54.54Y-55.99
X62.25Y-101.2
X62.25Y-105.8
X64.84Y-44.8
X68.73Y-56.24
X72.05Y-56.06
X75.5Y-56.13
X78.85Y-55.96
X89.325Y-43.95
X92.41Y-56.38
X96.32Y-55.61
X99.25Y-53.06
X104.3Y-53.9
X113.26Y-44.44
X115.75Y-53.925
X119.632Y-55.63
X123.457Y-56.017
X127.413Y-56.172
X137.7Y-44.4
X139.267Y-57.327
X144.65Y-52.88
X145.933Y-56.623
X151.39Y-55.86
X161.99Y-44.46
X165.9Y-55.7
X166.7Y-117.875
X166.775Y-120.425
X169.325Y-55.675
X172.7Y-55.55
X176.15Y-55.4
X184.075Y-116.875
T4
X43.85Y-105.65
X83.58Y-109.9
X86.78Y-104.45
X86.8Y-99.025
X92.34Y-109.79
X101.09Y-109.86
X104.775Y-99.125
X104.78Y-104.8
X109.99Y-109.83
X118.73Y-110.07
X121.793Y-99.522
X122.0Y-104.2
X127.48Y-110.2
X136.3Y-110.0
X139.89Y-99.659
X139.9Y-104.75
X145.12Y-110.27
T5
X44.015Y-35.0
X47.515Y-35.0
X51.015Y-35.0
X54.515Y-35.0
X61.313Y-35.0
X64.813Y-35.0
X68.313Y-35.0
X71.813Y-35.0
X75.313Y-35.0
X78.813Y-35.0
X85.611Y-35.0
X89.111Y-35.0
X92.611Y-35.0
X96.111Y-35.0
X99.611Y-35.0
X103.111Y-35.0
X109.909Y-35.0
X113.409Y-35.0
X116.909Y-35.0
X120.409Y-35.0
X123.909Y-35.0
X127.409Y-35.0
X134.207Y-35.0
X137.707Y-35.0
X141.207Y-35.0
X144.707Y-35.0
X148.207Y-35.0
X151.707Y-35.0
X158.505Y-35.0
X162.005Y-35.0
X165.505Y-35.0
X169.005Y-35.0
X172.505Y-35.0
X176.005Y-35.0
T6
X35.0Y-71.58
X35.0Y-76.66
X35.0Y-81.74
X35.0Y-86.82
X47.51Y-126.0
X52.59Y-126.0
X57.67Y-126.0
X62.75Y-126.0
X80.75Y-126.0
X85.83Y-126.0
X90.91Y-126.0
X95.99Y-126.0
X101.07Y-126.0
X106.15Y-126.0
X115.82Y-126.0
X120.9Y-126.0
X125.98Y-126.0
X131.06Y-126.0
X136.14Y-126.0
X141.22Y-126.0
X150.89Y-126.0
X155.97Y-126.0
X161.05Y-126.0
X166.13Y-126.0
X171.21Y-126.0
X176.29Y-126.0
T7
X34.15Y-108.14
X34.15Y-118.06
X37.55Y-108.14
X37.55Y-118.06
T8
X35.0Y-35.0
X35.0Y-125.0
X185.0Y-35.0
X185.0Y-125.0
M30
