%TF.GenerationSoftware,KiCad,Pcbnew,10.0.6*%
%TF.CreationDate,2026-10-05T13:31:18-04:00*%
%TF.ProjectId,robust-io,726f6275-7374-42d6-996f-2e6b69636164,rev?*%
%TF.SameCoordinates,Original*%
%TF.FileFunction,Legend,Bot*%
%TF.FilePolarity,Positive*%
%FSLAX46Y46*%
G04 Gerber Fmt 4.6, Leading zero omitted, Abs format (unit mm)*
G04 Created by KiCad (PCBNEW 10.0.6) date 2026-10-05 13:31:18*
%MOMM*%
%LPD*%
G01*
G04 APERTURE LIST*
G04 Aperture macros list*
%AMRoundRect*
0 Rectangle with rounded corners*
0 $1 Rounding radius*
0 $2 $3 $4 $5 $6 $7 $8 $9 X,Y pos of 4 corners*
0 Add a 4 corners polygon primitive as box body*
4,1,4,$2,$3,$4,$5,$6,$7,$8,$9,$2,$3,0*
0 Add four circle primitives for the rounded corners*
1,1,$1+$1,$2,$3*
1,1,$1+$1,$4,$5*
1,1,$1+$1,$6,$7*
1,1,$1+$1,$8,$9*
0 Add four rect primitives between the rounded corners*
20,1,$1+$1,$2,$3,$4,$5,0*
20,1,$1+$1,$4,$5,$6,$7,0*
20,1,$1+$1,$6,$7,$8,$9,0*
20,1,$1+$1,$8,$9,$2,$3,0*%
G04 Aperture macros list end*
%ADD10C,0.150000*%
%ADD11C,0.120000*%
%ADD12RoundRect,0.250000X0.650000X1.550000X-0.650000X1.550000X-0.650000X-1.550000X0.650000X-1.550000X0*%
%ADD13O,1.800000X3.600000*%
%ADD14C,2.780000*%
%ADD15C,3.600000*%
%ADD16C,5.600000*%
%ADD17RoundRect,0.249999X-0.790001X-1.550001X0.790001X-1.550001X0.790001X1.550001X-0.790001X1.550001X0*%
%ADD18O,2.080000X3.600000*%
%ADD19RoundRect,0.249999X-1.550001X0.790001X-1.550001X-0.790001X1.550001X-0.790001X1.550001X0.790001X0*%
%ADD20O,3.600000X2.080000*%
%ADD21C,1.000000*%
G04 APERTURE END LIST*
D10*
X109638094Y-81481819D02*
X109066666Y-81481819D01*
X109352380Y-82481819D02*
X109352380Y-81481819D01*
X108733332Y-82481819D02*
X108733332Y-81481819D01*
X108733332Y-81481819D02*
X108352380Y-81481819D01*
X108352380Y-81481819D02*
X108257142Y-81529438D01*
X108257142Y-81529438D02*
X108209523Y-81577057D01*
X108209523Y-81577057D02*
X108161904Y-81672295D01*
X108161904Y-81672295D02*
X108161904Y-81815152D01*
X108161904Y-81815152D02*
X108209523Y-81910390D01*
X108209523Y-81910390D02*
X108257142Y-81958009D01*
X108257142Y-81958009D02*
X108352380Y-82005628D01*
X108352380Y-82005628D02*
X108733332Y-82005628D01*
X107209523Y-82481819D02*
X107780951Y-82481819D01*
X107495237Y-82481819D02*
X107495237Y-81481819D01*
X107495237Y-81481819D02*
X107590475Y-81624676D01*
X107590475Y-81624676D02*
X107685713Y-81719914D01*
X107685713Y-81719914D02*
X107780951Y-81767533D01*
X106257142Y-82481819D02*
X106828570Y-82481819D01*
X106542856Y-82481819D02*
X106542856Y-81481819D01*
X106542856Y-81481819D02*
X106638094Y-81624676D01*
X106638094Y-81624676D02*
X106733332Y-81719914D01*
X106733332Y-81719914D02*
X106828570Y-81767533D01*
X105088094Y-73652819D02*
X104516666Y-73652819D01*
X104802380Y-74652819D02*
X104802380Y-73652819D01*
X104183332Y-74652819D02*
X104183332Y-73652819D01*
X104183332Y-73652819D02*
X103802380Y-73652819D01*
X103802380Y-73652819D02*
X103707142Y-73700438D01*
X103707142Y-73700438D02*
X103659523Y-73748057D01*
X103659523Y-73748057D02*
X103611904Y-73843295D01*
X103611904Y-73843295D02*
X103611904Y-73986152D01*
X103611904Y-73986152D02*
X103659523Y-74081390D01*
X103659523Y-74081390D02*
X103707142Y-74129009D01*
X103707142Y-74129009D02*
X103802380Y-74176628D01*
X103802380Y-74176628D02*
X104183332Y-74176628D01*
X103230951Y-73748057D02*
X103183332Y-73700438D01*
X103183332Y-73700438D02*
X103088094Y-73652819D01*
X103088094Y-73652819D02*
X102849999Y-73652819D01*
X102849999Y-73652819D02*
X102754761Y-73700438D01*
X102754761Y-73700438D02*
X102707142Y-73748057D01*
X102707142Y-73748057D02*
X102659523Y-73843295D01*
X102659523Y-73843295D02*
X102659523Y-73938533D01*
X102659523Y-73938533D02*
X102707142Y-74081390D01*
X102707142Y-74081390D02*
X103278570Y-74652819D01*
X103278570Y-74652819D02*
X102659523Y-74652819D01*
X101707142Y-74652819D02*
X102278570Y-74652819D01*
X101992856Y-74652819D02*
X101992856Y-73652819D01*
X101992856Y-73652819D02*
X102088094Y-73795676D01*
X102088094Y-73795676D02*
X102183332Y-73890914D01*
X102183332Y-73890914D02*
X102278570Y-73938533D01*
X121888094Y-64802819D02*
X121316666Y-64802819D01*
X121602380Y-65802819D02*
X121602380Y-64802819D01*
X120983332Y-65802819D02*
X120983332Y-64802819D01*
X120983332Y-64802819D02*
X120602380Y-64802819D01*
X120602380Y-64802819D02*
X120507142Y-64850438D01*
X120507142Y-64850438D02*
X120459523Y-64898057D01*
X120459523Y-64898057D02*
X120411904Y-64993295D01*
X120411904Y-64993295D02*
X120411904Y-65136152D01*
X120411904Y-65136152D02*
X120459523Y-65231390D01*
X120459523Y-65231390D02*
X120507142Y-65279009D01*
X120507142Y-65279009D02*
X120602380Y-65326628D01*
X120602380Y-65326628D02*
X120983332Y-65326628D01*
X119459523Y-65802819D02*
X120030951Y-65802819D01*
X119745237Y-65802819D02*
X119745237Y-64802819D01*
X119745237Y-64802819D02*
X119840475Y-64945676D01*
X119840475Y-64945676D02*
X119935713Y-65040914D01*
X119935713Y-65040914D02*
X120030951Y-65088533D01*
X118602380Y-64802819D02*
X118792856Y-64802819D01*
X118792856Y-64802819D02*
X118888094Y-64850438D01*
X118888094Y-64850438D02*
X118935713Y-64898057D01*
X118935713Y-64898057D02*
X119030951Y-65040914D01*
X119030951Y-65040914D02*
X119078570Y-65231390D01*
X119078570Y-65231390D02*
X119078570Y-65612342D01*
X119078570Y-65612342D02*
X119030951Y-65707580D01*
X119030951Y-65707580D02*
X118983332Y-65755200D01*
X118983332Y-65755200D02*
X118888094Y-65802819D01*
X118888094Y-65802819D02*
X118697618Y-65802819D01*
X118697618Y-65802819D02*
X118602380Y-65755200D01*
X118602380Y-65755200D02*
X118554761Y-65707580D01*
X118554761Y-65707580D02*
X118507142Y-65612342D01*
X118507142Y-65612342D02*
X118507142Y-65374247D01*
X118507142Y-65374247D02*
X118554761Y-65279009D01*
X118554761Y-65279009D02*
X118602380Y-65231390D01*
X118602380Y-65231390D02*
X118697618Y-65183771D01*
X118697618Y-65183771D02*
X118888094Y-65183771D01*
X118888094Y-65183771D02*
X118983332Y-65231390D01*
X118983332Y-65231390D02*
X119030951Y-65279009D01*
X119030951Y-65279009D02*
X119078570Y-65374247D01*
X106625904Y-65068819D02*
X106054476Y-65068819D01*
X106340190Y-66068819D02*
X106340190Y-65068819D01*
X105721142Y-66068819D02*
X105721142Y-65068819D01*
X105721142Y-65068819D02*
X105340190Y-65068819D01*
X105340190Y-65068819D02*
X105244952Y-65116438D01*
X105244952Y-65116438D02*
X105197333Y-65164057D01*
X105197333Y-65164057D02*
X105149714Y-65259295D01*
X105149714Y-65259295D02*
X105149714Y-65402152D01*
X105149714Y-65402152D02*
X105197333Y-65497390D01*
X105197333Y-65497390D02*
X105244952Y-65545009D01*
X105244952Y-65545009D02*
X105340190Y-65592628D01*
X105340190Y-65592628D02*
X105721142Y-65592628D01*
X104673523Y-66068819D02*
X104483047Y-66068819D01*
X104483047Y-66068819D02*
X104387809Y-66021200D01*
X104387809Y-66021200D02*
X104340190Y-65973580D01*
X104340190Y-65973580D02*
X104244952Y-65830723D01*
X104244952Y-65830723D02*
X104197333Y-65640247D01*
X104197333Y-65640247D02*
X104197333Y-65259295D01*
X104197333Y-65259295D02*
X104244952Y-65164057D01*
X104244952Y-65164057D02*
X104292571Y-65116438D01*
X104292571Y-65116438D02*
X104387809Y-65068819D01*
X104387809Y-65068819D02*
X104578285Y-65068819D01*
X104578285Y-65068819D02*
X104673523Y-65116438D01*
X104673523Y-65116438D02*
X104721142Y-65164057D01*
X104721142Y-65164057D02*
X104768761Y-65259295D01*
X104768761Y-65259295D02*
X104768761Y-65497390D01*
X104768761Y-65497390D02*
X104721142Y-65592628D01*
X104721142Y-65592628D02*
X104673523Y-65640247D01*
X104673523Y-65640247D02*
X104578285Y-65687866D01*
X104578285Y-65687866D02*
X104387809Y-65687866D01*
X104387809Y-65687866D02*
X104292571Y-65640247D01*
X104292571Y-65640247D02*
X104244952Y-65592628D01*
X104244952Y-65592628D02*
X104197333Y-65497390D01*
X108289904Y-68953819D02*
X107718476Y-68953819D01*
X108004190Y-69953819D02*
X108004190Y-68953819D01*
X107385142Y-69953819D02*
X107385142Y-68953819D01*
X107385142Y-68953819D02*
X107004190Y-68953819D01*
X107004190Y-68953819D02*
X106908952Y-69001438D01*
X106908952Y-69001438D02*
X106861333Y-69049057D01*
X106861333Y-69049057D02*
X106813714Y-69144295D01*
X106813714Y-69144295D02*
X106813714Y-69287152D01*
X106813714Y-69287152D02*
X106861333Y-69382390D01*
X106861333Y-69382390D02*
X106908952Y-69430009D01*
X106908952Y-69430009D02*
X107004190Y-69477628D01*
X107004190Y-69477628D02*
X107385142Y-69477628D01*
X106480380Y-68953819D02*
X105813714Y-68953819D01*
X105813714Y-68953819D02*
X106242285Y-69953819D01*
X115569904Y-71494819D02*
X114998476Y-71494819D01*
X115284190Y-72494819D02*
X115284190Y-71494819D01*
X114665142Y-72494819D02*
X114665142Y-71494819D01*
X114665142Y-71494819D02*
X114284190Y-71494819D01*
X114284190Y-71494819D02*
X114188952Y-71542438D01*
X114188952Y-71542438D02*
X114141333Y-71590057D01*
X114141333Y-71590057D02*
X114093714Y-71685295D01*
X114093714Y-71685295D02*
X114093714Y-71828152D01*
X114093714Y-71828152D02*
X114141333Y-71923390D01*
X114141333Y-71923390D02*
X114188952Y-71971009D01*
X114188952Y-71971009D02*
X114284190Y-72018628D01*
X114284190Y-72018628D02*
X114665142Y-72018628D01*
X113236571Y-71494819D02*
X113427047Y-71494819D01*
X113427047Y-71494819D02*
X113522285Y-71542438D01*
X113522285Y-71542438D02*
X113569904Y-71590057D01*
X113569904Y-71590057D02*
X113665142Y-71732914D01*
X113665142Y-71732914D02*
X113712761Y-71923390D01*
X113712761Y-71923390D02*
X113712761Y-72304342D01*
X113712761Y-72304342D02*
X113665142Y-72399580D01*
X113665142Y-72399580D02*
X113617523Y-72447200D01*
X113617523Y-72447200D02*
X113522285Y-72494819D01*
X113522285Y-72494819D02*
X113331809Y-72494819D01*
X113331809Y-72494819D02*
X113236571Y-72447200D01*
X113236571Y-72447200D02*
X113188952Y-72399580D01*
X113188952Y-72399580D02*
X113141333Y-72304342D01*
X113141333Y-72304342D02*
X113141333Y-72066247D01*
X113141333Y-72066247D02*
X113188952Y-71971009D01*
X113188952Y-71971009D02*
X113236571Y-71923390D01*
X113236571Y-71923390D02*
X113331809Y-71875771D01*
X113331809Y-71875771D02*
X113522285Y-71875771D01*
X113522285Y-71875771D02*
X113617523Y-71923390D01*
X113617523Y-71923390D02*
X113665142Y-71971009D01*
X113665142Y-71971009D02*
X113712761Y-72066247D01*
%TO.C,TP11*%
D11*
X108600000Y-80579000D02*
G75*
G02*
X107200000Y-80579000I-700000J0D01*
G01*
X107200000Y-80579000D02*
G75*
G02*
X108600000Y-80579000I700000J0D01*
G01*
%TO.C,TP21*%
X104050000Y-72750000D02*
G75*
G02*
X102650000Y-72750000I-700000J0D01*
G01*
X102650000Y-72750000D02*
G75*
G02*
X104050000Y-72750000I700000J0D01*
G01*
%TO.C,TP16*%
X120850000Y-63900000D02*
G75*
G02*
X119450000Y-63900000I-700000J0D01*
G01*
X119450000Y-63900000D02*
G75*
G02*
X120850000Y-63900000I700000J0D01*
G01*
%TO.C,TP9*%
X106064000Y-64166000D02*
G75*
G02*
X104664000Y-64166000I-700000J0D01*
G01*
X104664000Y-64166000D02*
G75*
G02*
X106064000Y-64166000I700000J0D01*
G01*
%TO.C,TP7*%
X107728000Y-68051000D02*
G75*
G02*
X106328000Y-68051000I-700000J0D01*
G01*
X106328000Y-68051000D02*
G75*
G02*
X107728000Y-68051000I700000J0D01*
G01*
%TO.C,TP6*%
X115008000Y-70592000D02*
G75*
G02*
X113608000Y-70592000I-700000J0D01*
G01*
X113608000Y-70592000D02*
G75*
G02*
X115008000Y-70592000I700000J0D01*
G01*
%TD*%
%LPC*%
D12*
%TO.C,J14*%
X54515119Y-35000000D03*
D13*
X51015119Y-35000000D03*
X47515119Y-35000000D03*
X44015119Y-35000000D03*
%TD*%
D14*
%TO.C,F1*%
X34150000Y-118060000D03*
X37550000Y-118060000D03*
X34150000Y-108140000D03*
X37550000Y-108140000D03*
%TD*%
D12*
%TO.C,J9*%
X151707119Y-35000000D03*
D13*
X148207119Y-35000000D03*
X144707119Y-35000000D03*
X141207119Y-35000000D03*
X137707119Y-35000000D03*
X134207119Y-35000000D03*
%TD*%
D15*
%TO.C,H3*%
X185000000Y-35000000D03*
D16*
X185000000Y-35000000D03*
%TD*%
D12*
%TO.C,J10*%
X176005119Y-35000000D03*
D13*
X172505119Y-35000000D03*
X169005119Y-35000000D03*
X165505119Y-35000000D03*
X162005119Y-35000000D03*
X158505119Y-35000000D03*
%TD*%
D15*
%TO.C,H1*%
X35000000Y-125000000D03*
D16*
X35000000Y-125000000D03*
%TD*%
D15*
%TO.C,H4*%
X185000000Y-125000000D03*
D16*
X185000000Y-125000000D03*
%TD*%
D15*
%TO.C,H2*%
X35000000Y-35000000D03*
D16*
X35000000Y-35000000D03*
%TD*%
D12*
%TO.C,J18*%
X103111119Y-35000000D03*
D13*
X99611119Y-35000000D03*
X96111119Y-35000000D03*
X92611119Y-35000000D03*
X89111119Y-35000000D03*
X85611119Y-35000000D03*
%TD*%
D17*
%TO.C,J6*%
X150890000Y-126000000D03*
D18*
X155970000Y-126000000D03*
X161050000Y-126000000D03*
X166130000Y-126000000D03*
X171210000Y-126000000D03*
X176290000Y-126000000D03*
%TD*%
D17*
%TO.C,J3*%
X80750000Y-126000000D03*
D18*
X85830000Y-126000000D03*
X90910000Y-126000000D03*
X95990000Y-126000000D03*
X101070000Y-126000000D03*
X106150000Y-126000000D03*
%TD*%
D19*
%TO.C,J4*%
X35000000Y-71580000D03*
D20*
X35000000Y-76660000D03*
X35000000Y-81740000D03*
X35000000Y-86820000D03*
%TD*%
D12*
%TO.C,J19*%
X78813119Y-35000000D03*
D13*
X75313119Y-35000000D03*
X71813119Y-35000000D03*
X68313119Y-35000000D03*
X64813119Y-35000000D03*
X61313119Y-35000000D03*
%TD*%
D17*
%TO.C,J15*%
X47510000Y-126000000D03*
D18*
X52590000Y-126000000D03*
X57670000Y-126000000D03*
X62750000Y-126000000D03*
%TD*%
D17*
%TO.C,J5*%
X115820000Y-126000000D03*
D18*
X120900000Y-126000000D03*
X125980000Y-126000000D03*
X131060000Y-126000000D03*
X136140000Y-126000000D03*
X141220000Y-126000000D03*
%TD*%
D12*
%TO.C,J16*%
X127409119Y-35000000D03*
D13*
X123909119Y-35000000D03*
X120409119Y-35000000D03*
X116909119Y-35000000D03*
X113409119Y-35000000D03*
X109909119Y-35000000D03*
%TD*%
D21*
%TO.C,TP11*%
X107900000Y-80579000D03*
%TD*%
%TO.C,TP21*%
X103350000Y-72750000D03*
%TD*%
%TO.C,TP16*%
X120150000Y-63900000D03*
%TD*%
%TO.C,TP9*%
X105364000Y-64166000D03*
%TD*%
%TO.C,TP7*%
X107028000Y-68051000D03*
%TD*%
%TO.C,TP6*%
X114308000Y-70592000D03*
%TD*%
%LPD*%
M02*
