%TF.GenerationSoftware,KiCad,Pcbnew,10.0.6*%
%TF.CreationDate,2026-10-05T13:31:18-04:00*%
%TF.ProjectId,robust-io,726f6275-7374-42d6-996f-2e6b69636164,rev?*%
%TF.SameCoordinates,Original*%
%TF.FileFunction,Soldermask,Bot*%
%TF.FilePolarity,Negative*%
%FSLAX46Y46*%
G04 Gerber Fmt 4.6, Leading zero omitted, Abs format (unit mm)*
G04 Created by KiCad (PCBNEW 10.0.6) date 2026-10-05 13:31:18*
%MOMM*%
%LPD*%
G01*
G04 APERTURE LIST*
G04 Aperture macros list*
%AMRoundRect*
0 Rectangle with rounded corners*
0 $1 Rounding radius*
0 $2 $3 $4 $5 $6 $7 $8 $9 X,Y pos of 4 corners*
0 Add a 4 corners polygon primitive as box body*
4,1,4,$2,$3,$4,$5,$6,$7,$8,$9,$2,$3,0*
0 Add four circle primitives for the rounded corners*
1,1,$1+$1,$2,$3*
1,1,$1+$1,$4,$5*
1,1,$1+$1,$6,$7*
1,1,$1+$1,$8,$9*
0 Add four rect primitives between the rounded corners*
20,1,$1+$1,$2,$3,$4,$5,0*
20,1,$1+$1,$4,$5,$6,$7,0*
20,1,$1+$1,$6,$7,$8,$9,0*
20,1,$1+$1,$8,$9,$2,$3,0*%
G04 Aperture macros list end*
%ADD10RoundRect,0.250000X0.650000X1.550000X-0.650000X1.550000X-0.650000X-1.550000X0.650000X-1.550000X0*%
%ADD11O,1.800000X3.600000*%
%ADD12C,2.780000*%
%ADD13C,3.600000*%
%ADD14C,5.600000*%
%ADD15RoundRect,0.249999X-0.790001X-1.550001X0.790001X-1.550001X0.790001X1.550001X-0.790001X1.550001X0*%
%ADD16O,2.080000X3.600000*%
%ADD17RoundRect,0.249999X-1.550001X0.790001X-1.550001X-0.790001X1.550001X-0.790001X1.550001X0.790001X0*%
%ADD18O,3.600000X2.080000*%
%ADD19C,1.000000*%
G04 APERTURE END LIST*
D10*
%TO.C,J14*%
X54515119Y-35000000D03*
D11*
X51015119Y-35000000D03*
X47515119Y-35000000D03*
X44015119Y-35000000D03*
%TD*%
D12*
%TO.C,F1*%
X34150000Y-118060000D03*
X37550000Y-118060000D03*
X34150000Y-108140000D03*
X37550000Y-108140000D03*
%TD*%
D10*
%TO.C,J9*%
X151707119Y-35000000D03*
D11*
X148207119Y-35000000D03*
X144707119Y-35000000D03*
X141207119Y-35000000D03*
X137707119Y-35000000D03*
X134207119Y-35000000D03*
%TD*%
D13*
%TO.C,H3*%
X185000000Y-35000000D03*
D14*
X185000000Y-35000000D03*
%TD*%
D10*
%TO.C,J10*%
X176005119Y-35000000D03*
D11*
X172505119Y-35000000D03*
X169005119Y-35000000D03*
X165505119Y-35000000D03*
X162005119Y-35000000D03*
X158505119Y-35000000D03*
%TD*%
D13*
%TO.C,H1*%
X35000000Y-125000000D03*
D14*
X35000000Y-125000000D03*
%TD*%
D13*
%TO.C,H4*%
X185000000Y-125000000D03*
D14*
X185000000Y-125000000D03*
%TD*%
D13*
%TO.C,H2*%
X35000000Y-35000000D03*
D14*
X35000000Y-35000000D03*
%TD*%
D10*
%TO.C,J18*%
X103111119Y-35000000D03*
D11*
X99611119Y-35000000D03*
X96111119Y-35000000D03*
X92611119Y-35000000D03*
X89111119Y-35000000D03*
X85611119Y-35000000D03*
%TD*%
D15*
%TO.C,J6*%
X150890000Y-126000000D03*
D16*
X155970000Y-126000000D03*
X161050000Y-126000000D03*
X166130000Y-126000000D03*
X171210000Y-126000000D03*
X176290000Y-126000000D03*
%TD*%
D15*
%TO.C,J3*%
X80750000Y-126000000D03*
D16*
X85830000Y-126000000D03*
X90910000Y-126000000D03*
X95990000Y-126000000D03*
X101070000Y-126000000D03*
X106150000Y-126000000D03*
%TD*%
D17*
%TO.C,J4*%
X35000000Y-71580000D03*
D18*
X35000000Y-76660000D03*
X35000000Y-81740000D03*
X35000000Y-86820000D03*
%TD*%
D10*
%TO.C,J19*%
X78813119Y-35000000D03*
D11*
X75313119Y-35000000D03*
X71813119Y-35000000D03*
X68313119Y-35000000D03*
X64813119Y-35000000D03*
X61313119Y-35000000D03*
%TD*%
D15*
%TO.C,J15*%
X47510000Y-126000000D03*
D16*
X52590000Y-126000000D03*
X57670000Y-126000000D03*
X62750000Y-126000000D03*
%TD*%
D15*
%TO.C,J5*%
X115820000Y-126000000D03*
D16*
X120900000Y-126000000D03*
X125980000Y-126000000D03*
X131060000Y-126000000D03*
X136140000Y-126000000D03*
X141220000Y-126000000D03*
%TD*%
D10*
%TO.C,J16*%
X127409119Y-35000000D03*
D11*
X123909119Y-35000000D03*
X120409119Y-35000000D03*
X116909119Y-35000000D03*
X113409119Y-35000000D03*
X109909119Y-35000000D03*
%TD*%
D19*
%TO.C,TP11*%
X107900000Y-80579000D03*
%TD*%
%TO.C,TP21*%
X103350000Y-72750000D03*
%TD*%
%TO.C,TP16*%
X120150000Y-63900000D03*
%TD*%
%TO.C,TP9*%
X105364000Y-64166000D03*
%TD*%
%TO.C,TP7*%
X107028000Y-68051000D03*
%TD*%
%TO.C,TP6*%
X114308000Y-70592000D03*
%TD*%
M02*
