%TF.GenerationSoftware,KiCad,Pcbnew,10.0.6*%
%TF.CreationDate,2026-10-05T13:31:18-04:00*%
%TF.ProjectId,robust-io,726f6275-7374-42d6-996f-2e6b69636164,rev?*%
%TF.SameCoordinates,Original*%
%TF.FileFunction,Copper,L4,Bot*%
%TF.FilePolarity,Positive*%
%FSLAX46Y46*%
G04 Gerber Fmt 4.6, Leading zero omitted, Abs format (unit mm)*
G04 Created by KiCad (PCBNEW 10.0.6) date 2026-10-05 13:31:18*
%MOMM*%
%LPD*%
G01*
G04 APERTURE LIST*
G04 Aperture macros list*
%AMRoundRect*
0 Rectangle with rounded corners*
0 $1 Rounding radius*
0 $2 $3 $4 $5 $6 $7 $8 $9 X,Y pos of 4 corners*
0 Add a 4 corners polygon primitive as box body*
4,1,4,$2,$3,$4,$5,$6,$7,$8,$9,$2,$3,0*
0 Add four circle primitives for the rounded corners*
1,1,$1+$1,$2,$3*
1,1,$1+$1,$4,$5*
1,1,$1+$1,$6,$7*
1,1,$1+$1,$8,$9*
0 Add four rect primitives between the rounded corners*
20,1,$1+$1,$2,$3,$4,$5,0*
20,1,$1+$1,$4,$5,$6,$7,0*
20,1,$1+$1,$6,$7,$8,$9,0*
20,1,$1+$1,$8,$9,$2,$3,0*%
G04 Aperture macros list end*
%TA.AperFunction,ComponentPad*%
%ADD10RoundRect,0.250000X0.650000X1.550000X-0.650000X1.550000X-0.650000X-1.550000X0.650000X-1.550000X0*%
%TD*%
%TA.AperFunction,ComponentPad*%
%ADD11O,1.800000X3.600000*%
%TD*%
%TA.AperFunction,ComponentPad*%
%ADD12C,2.780000*%
%TD*%
%TA.AperFunction,ComponentPad*%
%ADD13C,3.600000*%
%TD*%
%TA.AperFunction,ConnectorPad*%
%ADD14C,5.600000*%
%TD*%
%TA.AperFunction,ComponentPad*%
%ADD15C,0.600000*%
%TD*%
%TA.AperFunction,ComponentPad*%
%ADD16C,0.550000*%
%TD*%
%TA.AperFunction,ComponentPad*%
%ADD17RoundRect,0.249999X-0.790001X-1.550001X0.790001X-1.550001X0.790001X1.550001X-0.790001X1.550001X0*%
%TD*%
%TA.AperFunction,ComponentPad*%
%ADD18O,2.080000X3.600000*%
%TD*%
%TA.AperFunction,ComponentPad*%
%ADD19RoundRect,0.249999X-1.550001X0.790001X-1.550001X-0.790001X1.550001X-0.790001X1.550001X0.790001X0*%
%TD*%
%TA.AperFunction,ComponentPad*%
%ADD20O,3.600000X2.080000*%
%TD*%
%TA.AperFunction,SMDPad,CuDef*%
%ADD21C,1.000000*%
%TD*%
%TA.AperFunction,ViaPad*%
%ADD22C,0.600000*%
%TD*%
%TA.AperFunction,ViaPad*%
%ADD23C,1.500000*%
%TD*%
%TA.AperFunction,ViaPad*%
%ADD24C,1.200000*%
%TD*%
%TA.AperFunction,ViaPad*%
%ADD25C,1.000000*%
%TD*%
%TA.AperFunction,Conductor*%
%ADD26C,0.200000*%
%TD*%
%TA.AperFunction,Conductor*%
%ADD27C,5.000000*%
%TD*%
G04 APERTURE END LIST*
D10*
%TO.P,J14,1,Pin_1_1*%
%TO.N,/inputs/SG12*%
X54515119Y-35000000D03*
D11*
%TO.P,J14,2,Pin_2_2*%
%TO.N,/inputs/SG13*%
X51015119Y-35000000D03*
%TO.P,J14,3,Pin_3_3*%
%TO.N,Net-(J14-Pin_3)*%
X47515119Y-35000000D03*
%TO.P,J14,4,Pin_4_4*%
%TO.N,GND*%
X44015119Y-35000000D03*
%TD*%
D12*
%TO.P,F1,1*%
%TO.N,Net-(J15-Pin_1)*%
X34150000Y-118060000D03*
X37550000Y-118060000D03*
%TO.P,F1,2*%
%TO.N,+24V*%
X34150000Y-108140000D03*
X37550000Y-108140000D03*
%TD*%
D10*
%TO.P,J9,1,Pin_1_1*%
%TO.N,/inputs/SP0*%
X151707119Y-35000000D03*
D11*
%TO.P,J9,2,Pin_2_2*%
%TO.N,/inputs/SP1*%
X148207119Y-35000000D03*
%TO.P,J9,3,Pin_3_3*%
%TO.N,/inputs/SP2*%
X144707119Y-35000000D03*
%TO.P,J9,4,Pin_4_4*%
%TO.N,/inputs/SP3*%
X141207119Y-35000000D03*
%TO.P,J9,5,Pin_5_5*%
%TO.N,Net-(J9-Pin_5)*%
X137707119Y-35000000D03*
%TO.P,J9,6,Pin_6_6*%
%TO.N,GND*%
X134207119Y-35000000D03*
%TD*%
D13*
%TO.P,H3,1,1_1*%
%TO.N,GND*%
X185000000Y-35000000D03*
D14*
X185000000Y-35000000D03*
%TD*%
D10*
%TO.P,J10,1,Pin_1_1*%
%TO.N,/inputs/SP4*%
X176005119Y-35000000D03*
D11*
%TO.P,J10,2,Pin_2_2*%
%TO.N,/inputs/SP5*%
X172505119Y-35000000D03*
%TO.P,J10,3,Pin_3_3*%
%TO.N,/inputs/SP6*%
X169005119Y-35000000D03*
%TO.P,J10,4,Pin_4_4*%
%TO.N,/inputs/SP7*%
X165505119Y-35000000D03*
%TO.P,J10,5,Pin_5_5*%
%TO.N,Net-(J10-Pin_5)*%
X162005119Y-35000000D03*
%TO.P,J10,6,Pin_6_6*%
%TO.N,GND*%
X158505119Y-35000000D03*
%TD*%
D13*
%TO.P,H1,1,1_1*%
%TO.N,GND*%
X35000000Y-125000000D03*
D14*
X35000000Y-125000000D03*
%TD*%
D15*
%TO.P,U1,17,EP_17*%
%TO.N,GND*%
X176251000Y-114003301D03*
X176251000Y-115203301D03*
X176251000Y-116403301D03*
X176251000Y-117603301D03*
X177251000Y-114003301D03*
X177251000Y-115203301D03*
X177251000Y-116403301D03*
X177251000Y-117603301D03*
X178251000Y-114003301D03*
X178251000Y-115203301D03*
X178251000Y-116403301D03*
X178251000Y-117603301D03*
%TD*%
D13*
%TO.P,H4,1,1_1*%
%TO.N,GND*%
X185000000Y-125000000D03*
D14*
X185000000Y-125000000D03*
%TD*%
D16*
%TO.P,U14,17,EP_17*%
%TO.N,GND*%
X157646600Y-114090200D03*
X157646600Y-115290200D03*
X157646600Y-116490200D03*
X157646600Y-117690200D03*
X158646600Y-114090200D03*
X158646600Y-115290200D03*
X158646600Y-116490200D03*
X158646600Y-117690200D03*
X159646600Y-114090200D03*
X159646600Y-115290200D03*
X159646600Y-116490200D03*
X159646600Y-117690200D03*
%TD*%
D13*
%TO.P,H2,1,1_1*%
%TO.N,GND*%
X35000000Y-35000000D03*
D14*
X35000000Y-35000000D03*
%TD*%
D10*
%TO.P,J18,1,Pin_1_1*%
%TO.N,/inputs/SG4*%
X103111119Y-35000000D03*
D11*
%TO.P,J18,2,Pin_2_2*%
%TO.N,/inputs/SG5*%
X99611119Y-35000000D03*
%TO.P,J18,3,Pin_3_3*%
%TO.N,/inputs/SG6*%
X96111119Y-35000000D03*
%TO.P,J18,4,Pin_4_4*%
%TO.N,/inputs/SG7*%
X92611119Y-35000000D03*
%TO.P,J18,5,Pin_5_5*%
%TO.N,Net-(J18-Pin_5)*%
X89111119Y-35000000D03*
%TO.P,J18,6,Pin_6_6*%
%TO.N,GND*%
X85611119Y-35000000D03*
%TD*%
D17*
%TO.P,J6,1,Pin_1_1*%
%TO.N,+24V*%
X150890000Y-126000000D03*
D18*
%TO.P,J6,2,Pin_2_2*%
%TO.N,GND*%
X155970000Y-126000000D03*
%TO.P,J6,3,Pin_3_3*%
%TO.N,/outputs2/OUT1M0*%
X161050000Y-126000000D03*
%TO.P,J6,4,Pin_4_4*%
%TO.N,/outputs2/OUT2M0*%
X166130000Y-126000000D03*
%TO.P,J6,5,Pin_5_5*%
%TO.N,/outputs2/OUT1M1*%
X171210000Y-126000000D03*
%TO.P,J6,6,Pin_6_6*%
%TO.N,/outputs2/OUT2M1*%
X176290000Y-126000000D03*
%TD*%
D17*
%TO.P,J3,1,Pin_1_1*%
%TO.N,+24V*%
X80750000Y-126000000D03*
D18*
%TO.P,J3,2,Pin_2_2*%
%TO.N,GND*%
X85830000Y-126000000D03*
%TO.P,J3,3,Pin_3_3*%
%TO.N,/outputs2/OUT_0*%
X90910000Y-126000000D03*
%TO.P,J3,4,Pin_4_4*%
%TO.N,/outputs2/OUT_1*%
X95990000Y-126000000D03*
%TO.P,J3,5,Pin_5_5*%
%TO.N,/outputs2/OUT_2*%
X101070000Y-126000000D03*
%TO.P,J3,6,Pin_6_6*%
%TO.N,/outputs2/OUT_3*%
X106150000Y-126000000D03*
%TD*%
D19*
%TO.P,J4,1,Pin_1_1*%
%TO.N,Net-(J4-Pin_1)*%
X35000000Y-71580000D03*
D20*
%TO.P,J4,2,Pin_2_2*%
%TO.N,Net-(J4-Pin_2)*%
X35000000Y-76660000D03*
%TO.P,J4,3,Pin_3_3*%
%TO.N,+5V*%
X35000000Y-81740000D03*
%TO.P,J4,4,Pin_4_4*%
%TO.N,GND*%
X35000000Y-86820000D03*
%TD*%
D10*
%TO.P,J19,1,Pin_1_1*%
%TO.N,/inputs/SG8*%
X78813119Y-35000000D03*
D11*
%TO.P,J19,2,Pin_2_2*%
%TO.N,/inputs/SG9*%
X75313119Y-35000000D03*
%TO.P,J19,3,Pin_3_3*%
%TO.N,/inputs/SG10*%
X71813119Y-35000000D03*
%TO.P,J19,4,Pin_4_4*%
%TO.N,/inputs/SG11*%
X68313119Y-35000000D03*
%TO.P,J19,5,Pin_5_5*%
%TO.N,Net-(J19-Pin_5)*%
X64813119Y-35000000D03*
%TO.P,J19,6,Pin_6_6*%
%TO.N,GND*%
X61313119Y-35000000D03*
%TD*%
D17*
%TO.P,J15,1,Pin_1_1*%
%TO.N,Net-(J15-Pin_1)*%
X47510000Y-126000000D03*
D18*
%TO.P,J15,2,Pin_2_2*%
X52590000Y-126000000D03*
%TO.P,J15,3,Pin_3_3*%
%TO.N,GND*%
X57670000Y-126000000D03*
%TO.P,J15,4,Pin_4_4*%
X62750000Y-126000000D03*
%TD*%
D17*
%TO.P,J5,1,Pin_1_1*%
%TO.N,+24V*%
X115820000Y-126000000D03*
D18*
%TO.P,J5,2,Pin_2_2*%
%TO.N,GND*%
X120900000Y-126000000D03*
%TO.P,J5,3,Pin_3_3*%
%TO.N,/outputs2/OUT_4*%
X125980000Y-126000000D03*
%TO.P,J5,4,Pin_4_4*%
%TO.N,/outputs2/OUT_5*%
X131060000Y-126000000D03*
%TO.P,J5,5,Pin_5_5*%
%TO.N,/outputs2/OUT_6*%
X136140000Y-126000000D03*
%TO.P,J5,6,Pin_6_6*%
%TO.N,/outputs2/OUT_7*%
X141220000Y-126000000D03*
%TD*%
D10*
%TO.P,J16,1,Pin_1_1*%
%TO.N,/inputs/SG0*%
X127409119Y-35000000D03*
D11*
%TO.P,J16,2,Pin_2_2*%
%TO.N,/inputs/SG1*%
X123909119Y-35000000D03*
%TO.P,J16,3,Pin_3_3*%
%TO.N,/inputs/SG2*%
X120409119Y-35000000D03*
%TO.P,J16,4,Pin_4_4*%
%TO.N,/inputs/SG3*%
X116909119Y-35000000D03*
%TO.P,J16,5,Pin_5_5*%
%TO.N,Net-(J16-Pin_5)*%
X113409119Y-35000000D03*
%TO.P,J16,6,Pin_6_6*%
%TO.N,GND*%
X109909119Y-35000000D03*
%TD*%
D21*
%TO.P,TP11,1,1*%
%TO.N,/processor/RST*%
X107900000Y-80579000D03*
%TD*%
%TO.P,TP21,1,1*%
%TO.N,DEN1*%
X103350000Y-72750000D03*
%TD*%
%TO.P,TP16,1,1*%
%TO.N,AMUX0*%
X120150000Y-63900000D03*
%TD*%
%TO.P,TP9,1,1*%
%TO.N,INT_B0*%
X105364000Y-64166000D03*
%TD*%
%TO.P,TP7,1,1*%
%TO.N,CS_IN0*%
X107028000Y-68051000D03*
%TD*%
%TO.P,TP6,1,1*%
%TO.N,MISO0*%
X114308000Y-70592000D03*
%TD*%
D22*
%TO.N,+3.3V*%
X107000000Y-64025000D03*
X126500000Y-68775000D03*
X114038480Y-78469117D03*
X109711030Y-68138971D03*
X117200000Y-75830001D03*
X117500000Y-62630000D03*
X110050000Y-56030000D03*
X127200000Y-76825000D03*
%TO.N,GND*%
X89290000Y-70642500D03*
X50650000Y-45300000D03*
X127425000Y-45375000D03*
X110840000Y-81880000D03*
X123950000Y-45400000D03*
X144750000Y-45200000D03*
X68700000Y-119100000D03*
X169225000Y-44950000D03*
X54150000Y-45075000D03*
X83640000Y-63642500D03*
X98975200Y-75756400D03*
X71750000Y-45275000D03*
D23*
X145120000Y-110270000D03*
D22*
X96200000Y-45250000D03*
X72450000Y-119100000D03*
X106675000Y-86125000D03*
X116950000Y-45250000D03*
X105450000Y-69980000D03*
X140370000Y-119380000D03*
X114170000Y-77680000D03*
X85252500Y-80990000D03*
X56275000Y-74050000D03*
X82942500Y-75487500D03*
D23*
X92340000Y-109790000D03*
X136300000Y-110000000D03*
D22*
X105870000Y-77680000D03*
X110000000Y-73350000D03*
X105150000Y-119210000D03*
X148200000Y-45200000D03*
X147087500Y-86557500D03*
X171800000Y-71500000D03*
X144937500Y-76257500D03*
X134050000Y-61200000D03*
X68750000Y-101400000D03*
X70650000Y-119000000D03*
X95150000Y-70100000D03*
X90610000Y-117770000D03*
X116750000Y-85650000D03*
X120400000Y-45400000D03*
X98600000Y-118100000D03*
X92675000Y-45250000D03*
X99675000Y-45350000D03*
X181000000Y-110600000D03*
X113890000Y-119440000D03*
X64950000Y-119200000D03*
D23*
X83580000Y-109900000D03*
D22*
X114850000Y-103550000D03*
X57750000Y-101400000D03*
D23*
X104780000Y-104800000D03*
D22*
X68125000Y-45450000D03*
X75300000Y-45500000D03*
X79190000Y-70442500D03*
X141175000Y-45075000D03*
X85550000Y-69295000D03*
X53787500Y-82300000D03*
X98300000Y-104184611D03*
X111500000Y-61000000D03*
D23*
X127480000Y-110200000D03*
D22*
X88992500Y-82437500D03*
X66800000Y-119150000D03*
D23*
X122000000Y-104200000D03*
D22*
X170675000Y-109375000D03*
X166050000Y-44975000D03*
X63150000Y-119250000D03*
X100143600Y-84036800D03*
X184125000Y-120375000D03*
X78625000Y-45550000D03*
X109100000Y-61000000D03*
X160775000Y-111750000D03*
X172425000Y-44950000D03*
X111500000Y-58600000D03*
X112300000Y-67750000D03*
D23*
X118730000Y-110070000D03*
D22*
X74400000Y-119050000D03*
X98924400Y-73978400D03*
X109100000Y-58600000D03*
X101920000Y-67400000D03*
D23*
X86780000Y-104450000D03*
D22*
X113750000Y-64675000D03*
X57750000Y-105600000D03*
X164600000Y-80390000D03*
X79530000Y-103495000D03*
X125620000Y-118410000D03*
D23*
X101090000Y-109860000D03*
D22*
X132040000Y-119230000D03*
X56237500Y-87900000D03*
X78842500Y-81987500D03*
D24*
X166775000Y-120425000D03*
D23*
X109990000Y-109830000D03*
D22*
X61250000Y-119300000D03*
X126000000Y-97200000D03*
X122525000Y-72775000D03*
X175625000Y-45000000D03*
X103175000Y-45275000D03*
X46375000Y-80125000D03*
X120300000Y-77350000D03*
X98975200Y-77382000D03*
X101920000Y-65300000D03*
X132220000Y-103540000D03*
X59837500Y-83400000D03*
D23*
X139900000Y-104750000D03*
D22*
X151575000Y-45150000D03*
X68750000Y-105600000D03*
%TO.N,Net-(U1-VREF)*%
X166723400Y-109323000D03*
X171125000Y-115325000D03*
X154023800Y-116265200D03*
%TO.N,Net-(U2-PA1)*%
X122825000Y-61700000D03*
X128200000Y-82600000D03*
X112550000Y-70650000D03*
X128125000Y-62825000D03*
X118300000Y-64050000D03*
%TO.N,INT_B0*%
X109790342Y-69382930D03*
X107000000Y-62725000D03*
X108100000Y-67380000D03*
X106000000Y-67380000D03*
D25*
%TO.N,+24V*%
X169325000Y-55675000D03*
X96320000Y-55610000D03*
X62250000Y-105800000D03*
X176150000Y-55400000D03*
X51250000Y-101200000D03*
D22*
X81400000Y-101295000D03*
X119400000Y-99450000D03*
D25*
X166700000Y-117875000D03*
X75500000Y-56130000D03*
X54540000Y-55990000D03*
X72050000Y-56060000D03*
X89325000Y-43950000D03*
X78850000Y-55960000D03*
D22*
X102568000Y-99110000D03*
D23*
X139889999Y-99659137D03*
D22*
X137310000Y-100420000D03*
D25*
X144650000Y-52880000D03*
X92410000Y-56380000D03*
X161990000Y-44460000D03*
X119632182Y-55630000D03*
D22*
X102568000Y-100060000D03*
D25*
X145933127Y-56623127D03*
X184075000Y-116875000D03*
D22*
X137310000Y-101420000D03*
X94500000Y-64600000D03*
D25*
X151390000Y-55860000D03*
D23*
X43850000Y-105650000D03*
D25*
X51250000Y-105800000D03*
D23*
X86800000Y-99025000D03*
D25*
X139267182Y-57327182D03*
X115750000Y-53925000D03*
D22*
X81400000Y-100345000D03*
X82900000Y-99395000D03*
D25*
X99250000Y-53060000D03*
D22*
X82900000Y-101295000D03*
X117700000Y-99450000D03*
X99768000Y-99110000D03*
X135360000Y-100420000D03*
D23*
X121793332Y-99522470D03*
D25*
X127412594Y-56171770D03*
D22*
X101218000Y-99110000D03*
X117700000Y-100450000D03*
X135360000Y-101420000D03*
X119400000Y-101450000D03*
D25*
X62250000Y-101200000D03*
X172700000Y-55550000D03*
X123457182Y-56017182D03*
X113260000Y-44440000D03*
X68730000Y-56240000D03*
D22*
X119400000Y-100450000D03*
X99768000Y-101010000D03*
D25*
X104300000Y-53900000D03*
X137700000Y-44400000D03*
X165900000Y-55700000D03*
X47470000Y-44290000D03*
D22*
X101218000Y-101010000D03*
D23*
X104775000Y-99125000D03*
D22*
X137310000Y-99420000D03*
D25*
X51090000Y-56170000D03*
D22*
X101218000Y-100060000D03*
X99768000Y-100060000D03*
X82900000Y-100345000D03*
X135360000Y-99420000D03*
X102568000Y-101010000D03*
X81400000Y-99395000D03*
X117700000Y-101450000D03*
D25*
X64840000Y-44800000D03*
D22*
%TO.N,Net-(U10-IN1)*%
X137720000Y-104840000D03*
X138960000Y-95080000D03*
%TO.N,/outputs2/OUT_3*%
X109942857Y-114530000D03*
X66850000Y-111600000D03*
%TO.N,/outputs2/OUT_1*%
X93250000Y-115500000D03*
X63100000Y-111450000D03*
%TO.N,Net-(U8-IN0)*%
X98744611Y-95150000D03*
X99604611Y-104690000D03*
%TO.N,Net-(U8-DEN)*%
X100411813Y-104717394D03*
X100394611Y-95060000D03*
%TO.N,ISENSE*%
X118100000Y-105853333D03*
X135890000Y-105440000D03*
X82870000Y-105855000D03*
X127500000Y-105800000D03*
X101174611Y-105850000D03*
%TO.N,Net-(U8-DSEL)*%
X101867944Y-104680000D03*
X102004611Y-95250000D03*
%TO.N,Net-(U8-IN1)*%
X103784611Y-95300000D03*
X103044611Y-104680000D03*
%TO.N,/outputs2/OUT_2*%
X65000000Y-111600000D03*
X101700000Y-114800000D03*
%TO.N,/outputs2/OUT_7*%
X74450000Y-111500000D03*
X141980000Y-112500000D03*
%TO.N,+5V*%
X77000000Y-68725000D03*
X86550000Y-76070000D03*
X86600000Y-77725000D03*
X52712500Y-79087500D03*
%TO.N,/processor/TX0*%
X122975000Y-73830001D03*
X109000000Y-80830001D03*
X156600000Y-81660000D03*
X144423700Y-80500000D03*
%TO.N,Net-(D7-K)*%
X101000000Y-62680000D03*
X108150000Y-55280000D03*
%TO.N,/processor/CS_CAN*%
X109150000Y-70300000D03*
X67675000Y-72550000D03*
%TO.N,/outputs2/OUT_4*%
X115790000Y-113450000D03*
X68700000Y-111600000D03*
%TO.N,Net-(U9-IN0)*%
X116283333Y-104830000D03*
X114993333Y-95250000D03*
%TO.N,Net-(U9-DEN)*%
X116813333Y-95170000D03*
X117118417Y-104843446D03*
%TO.N,Net-(U9-DSEL)*%
X118623333Y-95110000D03*
X118750000Y-104870000D03*
%TO.N,Net-(U9-IN1)*%
X119549152Y-104833116D03*
X120903333Y-95060000D03*
%TO.N,/outputs2/OUT_5*%
X124050000Y-112950000D03*
X70600000Y-111550000D03*
%TO.N,/inputs/_SG4*%
X113850000Y-56780000D03*
X103500000Y-52070000D03*
%TO.N,DEN2*%
X117450000Y-72450000D03*
X115875000Y-84675000D03*
%TO.N,AMUX0*%
X122750000Y-63900000D03*
X114599265Y-69449265D03*
%TO.N,DEN3*%
X135200000Y-86125000D03*
X128900000Y-74500000D03*
%TO.N,Net-(U10-DEN)*%
X134920000Y-104910000D03*
X134330000Y-94940000D03*
%TO.N,/outputs2/OUT_0*%
X61300000Y-111500000D03*
X83950000Y-116350000D03*
%TO.N,IPROPIM1*%
X172700000Y-116775800D03*
X118044999Y-69500000D03*
X124150000Y-64200000D03*
X135875000Y-64250000D03*
%TO.N,EN_M1*%
X172400000Y-113525000D03*
X124550000Y-89375000D03*
X109050009Y-84425000D03*
X124525000Y-87150000D03*
%TO.N,PH_M1*%
X123600000Y-89950000D03*
X123649264Y-87750736D03*
X108250006Y-84425000D03*
X171550000Y-114125000D03*
%TO.N,nSLEEPMn*%
X113075000Y-77625000D03*
X172216926Y-114824380D03*
X140100000Y-88800000D03*
X154025000Y-114965200D03*
X127025000Y-78600000D03*
X148361765Y-97088235D03*
%TO.N,FAULTMn*%
X106450000Y-81850000D03*
X112325000Y-89525000D03*
X169475000Y-117250000D03*
X172894014Y-115484287D03*
X112500000Y-91875000D03*
X150725000Y-114175000D03*
%TO.N,MISO0*%
X107950000Y-64675000D03*
X109050000Y-67130000D03*
X102750000Y-73725000D03*
X110650000Y-67130000D03*
X106520000Y-74430000D03*
X117350000Y-67580000D03*
X61875000Y-78050000D03*
X110200000Y-74700000D03*
%TO.N,SCLK0*%
X62425000Y-79825000D03*
X112100000Y-63375000D03*
X102750000Y-74627776D03*
X108950000Y-75200000D03*
X118000000Y-70340000D03*
%TO.N,MOSI0*%
X108200000Y-73630000D03*
X111250000Y-64025000D03*
X69575000Y-72425000D03*
X102900000Y-71725000D03*
%TO.N,/processor/RST*%
X117100000Y-73700000D03*
X107900000Y-77250000D03*
%TO.N,/outputs2/OUT_6*%
X72400000Y-111450000D03*
X131940000Y-112910000D03*
%TO.N,Net-(U2-AREF)*%
X117400000Y-81550000D03*
X116937612Y-77880001D03*
%TO.N,DEN0*%
X82150000Y-89550000D03*
X106700000Y-69950000D03*
%TO.N,/inputs/_SG5*%
X112950000Y-56130000D03*
X101000000Y-56030000D03*
%TO.N,EN_M0*%
X107450003Y-84425000D03*
X122900000Y-90625000D03*
X122900000Y-88525000D03*
X154050000Y-111000000D03*
%TO.N,PH_M0*%
X153200000Y-111650000D03*
X106650000Y-84425000D03*
X121800000Y-89200000D03*
X121800000Y-91225000D03*
%TO.N,IPROPIM0*%
X124900000Y-61300000D03*
X144325000Y-93900000D03*
X129400000Y-61925000D03*
X116700000Y-69250000D03*
%TO.N,Net-(U7-AMUX)*%
X112900000Y-64725000D03*
X114950000Y-67250000D03*
%TO.N,DSELn*%
X137000000Y-87925000D03*
X83800000Y-90750000D03*
X129550000Y-75250000D03*
X118600000Y-90600000D03*
X102100000Y-90600000D03*
%TO.N,DEN1*%
X100400000Y-89500000D03*
X104300000Y-71800000D03*
%TO.N,Net-(U2-AVCC)*%
X118750000Y-77325000D03*
X121325000Y-76550000D03*
%TO.N,Net-(U10-IN0)*%
X132940000Y-95280000D03*
X134090000Y-104870000D03*
%TO.N,Net-(U11-DSEL)*%
X83500000Y-105015000D03*
X83846974Y-95442987D03*
%TO.N,Net-(U11-DEN)*%
X82200000Y-95375000D03*
X82200000Y-105025000D03*
%TO.N,/processor/INT_CAN0*%
X71400000Y-81700000D03*
X101625000Y-83350000D03*
%TO.N,Net-(U11-IN0)*%
X81400267Y-105004228D03*
X80520000Y-95385000D03*
%TO.N,Net-(U11-IN1)*%
X85650000Y-95265000D03*
X84293508Y-105116732D03*
%TO.N,CS_IN0*%
X109025000Y-69150000D03*
X109400000Y-62725000D03*
%TO.N,/inputs/_SG6*%
X111450000Y-55480000D03*
X102450000Y-56730000D03*
%TO.N,Net-(U3-TXCAN)*%
X51750000Y-77287500D03*
X51775000Y-79875000D03*
%TO.N,Net-(U10-DSEL)*%
X136870000Y-104880000D03*
X136950000Y-94990000D03*
%TD*%
%TO.N,+3.3V*%
D26*
X109711030Y-67840000D02*
X110050000Y-67500000D01*
X114038480Y-78469117D02*
X114560884Y-78469117D01*
X109711030Y-68138970D02*
X109711030Y-67840000D01*
X107000000Y-64030000D02*
X110050000Y-64030000D01*
X127200000Y-76825000D02*
X127200000Y-69475000D01*
X110050000Y-67500000D02*
X110050000Y-63000000D01*
X110050000Y-56030000D02*
X110050000Y-63000000D01*
X127200000Y-69475000D02*
X126500000Y-68775000D01*
X114560884Y-78469117D02*
X117200000Y-75830001D01*
X117500000Y-62630000D02*
X110050000Y-62630000D01*
%TO.N,GND*%
X181000000Y-110600000D02*
X180850000Y-110750000D01*
%TO.N,Net-(U1-VREF)*%
X166622200Y-113497200D02*
X166622200Y-110425800D01*
X166723400Y-110324600D02*
X166723400Y-109323000D01*
X166596800Y-110451200D02*
X166723400Y-110324600D01*
X152855400Y-113296000D02*
X152855400Y-115683600D01*
X153693600Y-112457800D02*
X152855400Y-113296000D01*
X166596800Y-110451200D02*
X163498000Y-110451200D01*
X163498000Y-110451200D02*
X161491400Y-112457800D01*
X166622200Y-110425800D02*
X166596800Y-110451200D01*
X168475000Y-115350000D02*
X166622200Y-113497200D01*
X171100000Y-115350000D02*
X168475000Y-115350000D01*
X153437000Y-116265200D02*
X154023800Y-116265200D01*
X171125000Y-115325000D02*
X171100000Y-115350000D01*
X161491400Y-112457800D02*
X153693600Y-112457800D01*
X152855400Y-115683600D02*
X153437000Y-116265200D01*
%TO.N,Net-(U2-PA1)*%
X118300000Y-64900000D02*
X112550000Y-70650000D01*
X125148529Y-60700000D02*
X123775000Y-60700000D01*
X118300000Y-64050000D02*
X118300000Y-64900000D01*
X123775000Y-60700000D02*
X122825000Y-61650000D01*
X128200000Y-82600000D02*
X128200000Y-62900000D01*
X128200000Y-62900000D02*
X128125000Y-62825000D01*
X128125000Y-62825000D02*
X127800000Y-62500000D01*
X126948529Y-62500000D02*
X125148529Y-60700000D01*
X127800000Y-62500000D02*
X126948529Y-62500000D01*
%TO.N,INT_B0*%
X106000000Y-63530000D02*
X106000000Y-67380000D01*
X109800000Y-69030000D02*
X109800000Y-69380000D01*
X109450000Y-68680000D02*
X109800000Y-69030000D01*
X106000000Y-63530000D02*
X105364000Y-64166000D01*
X106800000Y-62730000D02*
X106000000Y-63530000D01*
X109400000Y-68680000D02*
X109450000Y-68680000D01*
X108100000Y-67380000D02*
X109400000Y-68680000D01*
X107000000Y-62730000D02*
X106800000Y-62730000D01*
%TO.N,Net-(J15-Pin_1)*%
D27*
X39330000Y-118060000D02*
X34150000Y-118060000D01*
X52590000Y-126000000D02*
X47510000Y-126000000D01*
X47510000Y-126240000D02*
X39330000Y-118060000D01*
X47510000Y-126240000D02*
X47510000Y-126000000D01*
%TO.N,+24V*%
D26*
X68730000Y-56240000D02*
X68830000Y-56340000D01*
X51090000Y-56170000D02*
X51020000Y-56240000D01*
X144650000Y-52880000D02*
X144670000Y-52860000D01*
%TO.N,Net-(U10-IN1)*%
X137720000Y-104840000D02*
X138840000Y-103720000D01*
X138840000Y-103720000D02*
X138840000Y-95200000D01*
X138840000Y-95200000D02*
X138960000Y-95080000D01*
%TO.N,/outputs2/OUT_3*%
X109512857Y-114100000D02*
X109942857Y-114530000D01*
X66850000Y-111600000D02*
X69350000Y-114100000D01*
X69350000Y-114100000D02*
X109512857Y-114100000D01*
%TO.N,/outputs2/OUT_1*%
X67150000Y-115500000D02*
X93250000Y-115500000D01*
X63100000Y-111450000D02*
X67150000Y-115500000D01*
%TO.N,Net-(U8-IN0)*%
X98774611Y-103416667D02*
X98774611Y-95180000D01*
X99604611Y-104690000D02*
X99604611Y-104246667D01*
X98774611Y-95180000D02*
X98744611Y-95150000D01*
X99604611Y-104246667D02*
X98774611Y-103416667D01*
%TO.N,Net-(U8-DEN)*%
X100411813Y-104717394D02*
X100534611Y-104594596D01*
X100534611Y-104594596D02*
X100534611Y-95200000D01*
X100534611Y-95200000D02*
X100394611Y-95060000D01*
%TO.N,ISENSE*%
X118100000Y-105853333D02*
X118153333Y-105800000D01*
X101460000Y-105850000D02*
X110680000Y-105850000D01*
X118153333Y-105800000D02*
X135530000Y-105800000D01*
X101169611Y-105855000D02*
X101174611Y-105850000D01*
X135530000Y-105800000D02*
X135890000Y-105440000D01*
X82870000Y-105855000D02*
X101169611Y-105855000D01*
X109754999Y-105850000D02*
X118096667Y-105850000D01*
X118096667Y-105850000D02*
X118100000Y-105853333D01*
%TO.N,Net-(U8-DSEL)*%
X101867944Y-95386667D02*
X102004611Y-95250000D01*
X101867944Y-104680000D02*
X101867944Y-95386667D01*
%TO.N,Net-(U8-IN1)*%
X103044611Y-104680000D02*
X103675000Y-104049611D01*
X103675000Y-95409611D02*
X103784611Y-95300000D01*
X103675000Y-104049611D02*
X103675000Y-95409611D01*
%TO.N,/outputs2/OUT_2*%
X101650000Y-114800000D02*
X101700000Y-114750000D01*
X101700000Y-114750000D02*
X101700000Y-114800000D01*
X68200000Y-114800000D02*
X101650000Y-114800000D01*
X65000000Y-111600000D02*
X68200000Y-114800000D01*
%TO.N,/outputs2/OUT_7*%
X140980000Y-111500000D02*
X141980000Y-112500000D01*
X74450000Y-111500000D02*
X140980000Y-111500000D01*
%TO.N,+5V*%
X69800000Y-68725000D02*
X77000000Y-68725000D01*
X52725000Y-79100000D02*
X52712500Y-79087500D01*
X52210000Y-81740000D02*
X52725000Y-81225000D01*
X52712500Y-79087500D02*
X54650000Y-77150000D01*
X86550000Y-77675000D02*
X86600000Y-77725000D01*
X35000000Y-81740000D02*
X52210000Y-81740000D01*
X61375000Y-77150000D02*
X69800000Y-68725000D01*
X52725000Y-81225000D02*
X52725000Y-79100000D01*
X54650000Y-77150000D02*
X61375000Y-77150000D01*
X86550000Y-76070000D02*
X86550000Y-77675000D01*
%TO.N,/processor/TX0*%
X109000000Y-79201471D02*
X109000000Y-80830001D01*
X122731472Y-73830001D02*
X120501471Y-71600000D01*
X155440000Y-80500000D02*
X156600000Y-81660000D01*
X144423700Y-80500000D02*
X155440000Y-80500000D01*
X122975000Y-73830001D02*
X122731472Y-73830001D01*
X116601471Y-71600000D02*
X109000000Y-79201471D01*
X120501471Y-71600000D02*
X116601471Y-71600000D01*
%TO.N,Net-(D7-K)*%
X108150000Y-55280000D02*
X101000000Y-62430000D01*
X101000000Y-62430000D02*
X101000000Y-62680000D01*
%TO.N,/processor/CS_CAN*%
X108200000Y-69350000D02*
X109150000Y-70300000D01*
X104426471Y-69350000D02*
X108200000Y-69350000D01*
X101951471Y-71825000D02*
X104426471Y-69350000D01*
X68400000Y-71825000D02*
X101951471Y-71825000D01*
X67675000Y-72550000D02*
X68400000Y-71825000D01*
%TO.N,/outputs2/OUT_4*%
X68700000Y-111600000D02*
X70550000Y-113450000D01*
X70550000Y-113450000D02*
X115790000Y-113450000D01*
%TO.N,Net-(U9-IN0)*%
X115513333Y-104060000D02*
X115513333Y-95770000D01*
X115513333Y-95770000D02*
X114993333Y-95250000D01*
X116283333Y-104830000D02*
X115513333Y-104060000D01*
%TO.N,Net-(U9-DEN)*%
X117012420Y-95369087D02*
X116813333Y-95170000D01*
X117012420Y-104737449D02*
X117012420Y-95369087D01*
X117118417Y-104843446D02*
X117012420Y-104737449D01*
%TO.N,Net-(U9-DSEL)*%
X118750000Y-104870000D02*
X118733333Y-104853333D01*
X118733333Y-104853333D02*
X118733333Y-95220000D01*
X118733333Y-95220000D02*
X118623333Y-95110000D01*
%TO.N,Net-(U9-IN1)*%
X120743333Y-95220000D02*
X120903333Y-95060000D01*
X120743333Y-103638935D02*
X120743333Y-95220000D01*
X119549152Y-104833116D02*
X120743333Y-103638935D01*
%TO.N,/outputs2/OUT_5*%
X71800000Y-112750000D02*
X123850000Y-112750000D01*
X70600000Y-111550000D02*
X71800000Y-112750000D01*
X123850000Y-112750000D02*
X124050000Y-112950000D01*
%TO.N,/inputs/_SG4*%
X110350000Y-52680000D02*
X103500000Y-52680000D01*
X103500000Y-52070000D02*
X103500000Y-52680000D01*
X113850000Y-56180000D02*
X110350000Y-52680000D01*
X113850000Y-56780000D02*
X113850000Y-56180000D01*
%TO.N,DEN2*%
X118050000Y-82500000D02*
X118050000Y-73050000D01*
X115875000Y-84675000D02*
X118050000Y-82500000D01*
X118050000Y-73050000D02*
X117450000Y-72450000D01*
%TO.N,AMUX0*%
X120150000Y-63900000D02*
X122750000Y-63900000D01*
X114600735Y-69449265D02*
X120150000Y-63900000D01*
X114599265Y-69449265D02*
X114600735Y-69449265D01*
%TO.N,DEN3*%
X129392158Y-75957843D02*
X128850000Y-75415685D01*
X135200000Y-86125000D02*
X135200000Y-76965686D01*
X128850000Y-74550000D02*
X128900000Y-74500000D01*
X135200000Y-76965686D02*
X134192157Y-75957843D01*
X128850000Y-75415685D02*
X128850000Y-74550000D01*
X134192157Y-75957843D02*
X129392158Y-75957843D01*
%TO.N,Net-(U10-DEN)*%
X134920000Y-104910000D02*
X134690000Y-104680000D01*
X134690000Y-104680000D02*
X134690000Y-95300000D01*
X134690000Y-95300000D02*
X134330000Y-94940000D01*
%TO.N,/outputs2/OUT_0*%
X61300000Y-111500000D02*
X66150000Y-116350000D01*
X66150000Y-116350000D02*
X83950000Y-116350000D01*
%TO.N,IPROPIM1*%
X173494014Y-109137642D02*
X173494014Y-115981786D01*
X118044999Y-69500000D02*
X118850000Y-69500000D01*
X173494014Y-115981786D02*
X172700000Y-116775800D01*
X155190686Y-106700000D02*
X171056372Y-106700000D01*
X135875000Y-64250000D02*
X139000000Y-67375000D01*
X139000000Y-67375000D02*
X139000000Y-90509314D01*
X171056372Y-106700000D02*
X173494014Y-109137642D01*
X118850000Y-69500000D02*
X124150000Y-64200000D01*
X139000000Y-90509314D02*
X155190686Y-106700000D01*
%TO.N,EN_M1*%
X155025000Y-107100000D02*
X170890686Y-107100000D01*
X109050000Y-84425009D02*
X109050000Y-86675000D01*
X172400000Y-108609314D02*
X172400000Y-113525000D01*
X124550000Y-89375000D02*
X125000000Y-89825000D01*
X109525000Y-87150000D02*
X124525000Y-87150000D01*
X137750000Y-89825000D02*
X155025000Y-107100000D01*
X170890686Y-107100000D02*
X172400000Y-108609314D01*
X109050009Y-84425000D02*
X109050000Y-84425009D01*
X109050000Y-86675000D02*
X109525000Y-87150000D01*
X125000000Y-89825000D02*
X137750000Y-89825000D01*
%TO.N,PH_M1*%
X108450000Y-84624994D02*
X108450000Y-87051471D01*
X109149265Y-87750736D02*
X123649264Y-87750736D01*
X154800000Y-107500000D02*
X170725000Y-107500000D01*
X123600000Y-89950000D02*
X123875000Y-90225000D01*
X108250006Y-84425000D02*
X108450000Y-84624994D01*
X108450000Y-87051471D02*
X109149265Y-87750736D01*
X123650000Y-87750000D02*
X123649264Y-87750736D01*
X170725000Y-107500000D02*
X171550000Y-108325000D01*
X137525000Y-90225000D02*
X154800000Y-107500000D01*
X171550000Y-108325000D02*
X171550000Y-114125000D01*
X123875000Y-90225000D02*
X137525000Y-90225000D01*
%TO.N,nSLEEPMn*%
X160400000Y-115890000D02*
X154949800Y-115890000D01*
X143075000Y-91801470D02*
X143075000Y-91800000D01*
X168732844Y-116173529D02*
X168284315Y-115725000D01*
X171125000Y-116173529D02*
X168732844Y-116173529D01*
X140100000Y-88825000D02*
X140100000Y-88800000D01*
X172216926Y-114824380D02*
X171725000Y-115316306D01*
X148361765Y-97088235D02*
X143075000Y-91801470D01*
X116150000Y-85401471D02*
X122951471Y-78600000D01*
X122951471Y-78600000D02*
X127025000Y-78600000D01*
X154949800Y-115890000D02*
X154025000Y-114965200D01*
X160565000Y-115725000D02*
X160400000Y-115890000D01*
X171725000Y-115573529D02*
X171125000Y-116173529D01*
X115652942Y-85401471D02*
X116150000Y-85401471D01*
X171725000Y-115316306D02*
X171725000Y-115573529D01*
X113075000Y-82823529D02*
X115652942Y-85401471D01*
X143075000Y-91800000D02*
X140100000Y-88825000D01*
X168284315Y-115725000D02*
X160565000Y-115725000D01*
X113075000Y-77625000D02*
X113075000Y-82823529D01*
%TO.N,FAULTMn*%
X150725000Y-105950000D02*
X150725000Y-114175000D01*
X150725000Y-114175000D02*
X153625000Y-117075000D01*
X153625000Y-117075000D02*
X167031371Y-117075000D01*
X106050000Y-82250000D02*
X106050000Y-86348529D01*
X106050000Y-86348529D02*
X109226471Y-89525000D01*
X136650000Y-91875000D02*
X150725000Y-105950000D01*
X106450000Y-81850000D02*
X106050000Y-82250000D01*
X167031371Y-117075000D02*
X167206371Y-117250000D01*
X169475000Y-117250000D02*
X171128301Y-117250000D01*
X112500000Y-91875000D02*
X136650000Y-91875000D01*
X171128301Y-117250000D02*
X172894014Y-115484287D01*
X106450000Y-81850000D02*
X106575000Y-81975000D01*
X109226471Y-89525000D02*
X112325000Y-89525000D01*
X167206371Y-117250000D02*
X169475000Y-117250000D01*
%TO.N,MISO0*%
X107950000Y-66080000D02*
X109000000Y-67130000D01*
X107950000Y-64675000D02*
X107950000Y-66080000D01*
X110650000Y-67130000D02*
X110650000Y-68900000D01*
X115300000Y-69600000D02*
X114308000Y-70592000D01*
X117350000Y-67580000D02*
X115285000Y-69615000D01*
X109000000Y-67130000D02*
X109050000Y-67130000D01*
X66546600Y-73378400D02*
X61875000Y-78050000D01*
X102403400Y-73378400D02*
X66546600Y-73378400D01*
X102750000Y-73725000D02*
X102403400Y-73378400D01*
X114308000Y-70592000D02*
X110670000Y-74230000D01*
X110650000Y-68900000D02*
X111350000Y-69600000D01*
X110669999Y-74230001D02*
X110200000Y-74700000D01*
X111350000Y-69600000D02*
X106520000Y-74430000D01*
%TO.N,SCLK0*%
X111650000Y-64850000D02*
X111650000Y-68627000D01*
X111450000Y-75800000D02*
X109550000Y-75800000D01*
X112622800Y-69600000D02*
X109300000Y-72922800D01*
X67647224Y-74627776D02*
X62425000Y-79850000D01*
X112100000Y-64400000D02*
X111650000Y-64850000D01*
X111650000Y-68627000D02*
X112623000Y-69600000D01*
X109300000Y-74850000D02*
X108950000Y-75200000D01*
X112100000Y-63375000D02*
X112100000Y-64400000D01*
X109300000Y-72922800D02*
X109300000Y-74850000D01*
X102750000Y-74627776D02*
X67647224Y-74627776D01*
X116910000Y-70340000D02*
X111450000Y-75800000D01*
X109550000Y-75800000D02*
X108950000Y-75200000D01*
X118000000Y-70340000D02*
X116910000Y-70340000D01*
%TO.N,MOSI0*%
X111986400Y-69600000D02*
X108200000Y-73386400D01*
X111250000Y-68864000D02*
X111986000Y-69600000D01*
X111250000Y-64025000D02*
X111250000Y-68864000D01*
X69575000Y-72425000D02*
X102200000Y-72425000D01*
X102200000Y-72425000D02*
X102900000Y-71725000D01*
X108200000Y-73386400D02*
X108200000Y-73630000D01*
%TO.N,/processor/RST*%
X108751471Y-81430001D02*
X107900235Y-80578765D01*
X115825000Y-73700000D02*
X109600000Y-79925000D01*
X109600000Y-81078530D02*
X109248529Y-81430001D01*
X117100000Y-73700000D02*
X115825000Y-73700000D01*
X109248529Y-81430001D02*
X108751471Y-81430001D01*
X107900235Y-80578765D02*
X107900000Y-80578530D01*
X107900000Y-80578530D02*
X107900000Y-77250000D01*
X109600000Y-79925000D02*
X109600000Y-81078530D01*
%TO.N,/outputs2/OUT_6*%
X131280000Y-112250000D02*
X131940000Y-112910000D01*
X72400000Y-111450000D02*
X73200000Y-112250000D01*
X73200000Y-112250000D02*
X131280000Y-112250000D01*
%TO.N,Net-(U2-AREF)*%
X116937612Y-78237388D02*
X116700000Y-78475000D01*
X116700000Y-80850000D02*
X117400000Y-81550000D01*
X116700000Y-78475000D02*
X116700000Y-80850000D01*
X116937612Y-77880001D02*
X116937612Y-78237388D01*
%TO.N,DEN0*%
X101550000Y-90100000D02*
X82700000Y-90100000D01*
X105150000Y-71500000D02*
X105150000Y-86500000D01*
X105150000Y-86500000D02*
X101550000Y-90100000D01*
X106700000Y-69950000D02*
X105150000Y-71500000D01*
X82700000Y-90100000D02*
X82150000Y-89550000D01*
%TO.N,/inputs/_SG5*%
X109900000Y-53080000D02*
X103950000Y-53080000D01*
X103950000Y-53080000D02*
X101000000Y-56030000D01*
X112950000Y-56130000D02*
X109900000Y-53080000D01*
%TO.N,EN_M0*%
X154050000Y-108000000D02*
X154050000Y-111000000D01*
X108041422Y-87208579D02*
X108041422Y-86077207D01*
X136675000Y-90625000D02*
X154050000Y-108000000D01*
X108041422Y-86077207D02*
X107450003Y-85485788D01*
X107450003Y-85485788D02*
X107450003Y-84425000D01*
X122900000Y-90625000D02*
X136675000Y-90625000D01*
X109357843Y-88525000D02*
X108041422Y-87208579D01*
X122900000Y-88525000D02*
X109357843Y-88525000D01*
%TO.N,PH_M0*%
X109192157Y-88925000D02*
X107546079Y-87278922D01*
X121000000Y-89200000D02*
X120725000Y-88925000D01*
X120725000Y-88925000D02*
X109192157Y-88925000D01*
X107546079Y-86147550D02*
X106650000Y-85251471D01*
X153200000Y-107859315D02*
X153200000Y-111650000D01*
X106650000Y-85251471D02*
X106650000Y-84425000D01*
X121800000Y-89200000D02*
X121000000Y-89200000D01*
X136565685Y-91225000D02*
X153200000Y-107859315D01*
X107546079Y-87278922D02*
X107546079Y-86147550D01*
X121800000Y-91225000D02*
X136565685Y-91225000D01*
%TO.N,IPROPIM0*%
X139500000Y-89050000D02*
X139500000Y-67026471D01*
X117050000Y-68900000D02*
X116700000Y-69250000D01*
X134398529Y-61925000D02*
X129400000Y-61925000D01*
X139500000Y-67026471D02*
X134398529Y-61925000D01*
X140450000Y-90025000D02*
X140450000Y-90000000D01*
X124900000Y-61300000D02*
X124900000Y-62598529D01*
X118598529Y-68900000D02*
X117050000Y-68900000D01*
X144325000Y-93900000D02*
X140450000Y-90025000D01*
X124900000Y-62598529D02*
X118598529Y-68900000D01*
X140450000Y-90000000D02*
X139500000Y-89050000D01*
%TO.N,Net-(U7-AMUX)*%
X114825000Y-66650000D02*
X114825000Y-67250000D01*
X112900000Y-64725000D02*
X114825000Y-66650000D01*
X114825000Y-67250000D02*
X114950000Y-67250000D01*
%TO.N,DSELn*%
X119400000Y-89800000D02*
X118600000Y-90600000D01*
X134050000Y-75250000D02*
X129550000Y-75250000D01*
X83800000Y-90750000D02*
X101950000Y-90750000D01*
X122048529Y-89800000D02*
X119400000Y-89800000D01*
X137000000Y-87925000D02*
X136975000Y-87950000D01*
X124323529Y-87950000D02*
X123148529Y-89125000D01*
X136975000Y-87950000D02*
X124323529Y-87950000D01*
X137000000Y-87925000D02*
X137000000Y-78200000D01*
X122723529Y-89125000D02*
X122048529Y-89800000D01*
X137000000Y-78200000D02*
X134050000Y-75250000D01*
X102100000Y-90600000D02*
X118600000Y-90600000D01*
X101950000Y-90750000D02*
X102100000Y-90600000D01*
X129550000Y-75250000D02*
X129250000Y-75250000D01*
X123148529Y-89125000D02*
X122723529Y-89125000D01*
%TO.N,DEN1*%
X103350000Y-72750000D02*
X104300000Y-71800000D01*
X103350000Y-86550000D02*
X103350000Y-72750000D01*
X100400000Y-89500000D02*
X103350000Y-86550000D01*
%TO.N,Net-(U2-AVCC)*%
X121325000Y-76550000D02*
X119525000Y-76550000D01*
X119525000Y-76550000D02*
X118750000Y-77325000D01*
%TO.N,Net-(U10-IN0)*%
X132960000Y-95780000D02*
X132960000Y-104020000D01*
X132940000Y-95760000D02*
X132960000Y-95780000D01*
X132940000Y-95280000D02*
X132940000Y-95760000D01*
X133810000Y-104870000D02*
X134090000Y-104870000D01*
X132960000Y-104020000D02*
X133810000Y-104870000D01*
%TO.N,Net-(U11-DSEL)*%
X83860000Y-104655000D02*
X83860000Y-95456013D01*
X83500000Y-105015000D02*
X83860000Y-104655000D01*
X83860000Y-95456013D02*
X83846974Y-95442987D01*
%TO.N,Net-(U11-DEN)*%
X82200000Y-105025000D02*
X82200000Y-95375000D01*
%TO.N,/processor/INT_CAN0*%
X73050000Y-83350000D02*
X101625000Y-83350000D01*
X71400000Y-81700000D02*
X73050000Y-83350000D01*
%TO.N,Net-(U11-IN0)*%
X80470000Y-104905000D02*
X80470000Y-95435000D01*
X80870000Y-105305000D02*
X80470000Y-104905000D01*
X81400267Y-105004228D02*
X81099495Y-105305000D01*
X81099495Y-105305000D02*
X80870000Y-105305000D01*
X80470000Y-95435000D02*
X80520000Y-95385000D01*
%TO.N,Net-(U11-IN1)*%
X85388268Y-105116732D02*
X85730000Y-104775000D01*
X85730000Y-95345000D02*
X85650000Y-95265000D01*
X85730000Y-104775000D02*
X85730000Y-95345000D01*
X84293508Y-105116732D02*
X85388268Y-105116732D01*
%TO.N,CS_IN0*%
X106683300Y-67220000D02*
X107028000Y-68051000D01*
X106400000Y-66930000D02*
X107250000Y-67800000D01*
X106750000Y-63380000D02*
X106400000Y-63730000D01*
X108600000Y-69150000D02*
X109025000Y-69150000D01*
X106400000Y-63730000D02*
X106400000Y-66930000D01*
X109400000Y-62730000D02*
X108750000Y-63380000D01*
X108750000Y-63380000D02*
X106750000Y-63380000D01*
X107250000Y-67800000D02*
X108600000Y-69150000D01*
%TO.N,/inputs/_SG6*%
X104500000Y-54680000D02*
X102450000Y-56730000D01*
X111450000Y-55480000D02*
X110650000Y-54680000D01*
X110650000Y-54680000D02*
X104500000Y-54680000D01*
%TO.N,Net-(U3-TXCAN)*%
X51750000Y-77287500D02*
X51750000Y-79850000D01*
X51750000Y-79850000D02*
X51775000Y-79875000D01*
%TO.N,Net-(U10-DSEL)*%
X136650000Y-104660000D02*
X136650000Y-95290000D01*
X136870000Y-104880000D02*
X136650000Y-104660000D01*
X136650000Y-95290000D02*
X136950000Y-94990000D01*
%TD*%
M02*
